<?xml version="1.0" encoding="UTF-8" standalone="no"?>
<!DOCTYPE svg PUBLIC "-//W3C//DTD SVG 1.1//EN" "http://www.w3.org/Graphics/SVG/1.1/DTD/svg11.dtd">
<!-- Generated by Microsoft Visio, SVG Export VIC_sliding_window.svg Page-1 -->
<svg xmlns="http://www.w3.org/2000/svg" xmlns:xlink="http://www.w3.org/1999/xlink" xmlns:ev="http://www.w3.org/2001/xml-events"
		xmlns:v="http://schemas.microsoft.com/visio/2003/SVGExtensions/" width="3.94083in" height="1.22964in"
		viewBox="0 0 283.74 88.5342" xml:space="preserve" color-interpolation-filters="sRGB" class="st7">
	<v:documentProperties v:langID="1033" v:viewMarkup="false">
		<v:userDefs>
			<v:ud v:nameU="msvNoAutoConnect" v:val="VT0(1):26"/>
			<v:ud v:nameU="msvConvertTheme"/>
		</v:userDefs>
	</v:documentProperties>

	<style type="text/css">
	<![CDATA[
		.st1 {fill:#ffffff;stroke:#000000;stroke-linecap:round;stroke-linejoin:round;stroke-width:0.24}
		.st2 {fill:#000000;font-family:Arial;font-size:0.666664em}
		.st3 {fill:none;stroke:none;stroke-width:1}
		.st4 {fill:none}
		.st5 {stroke:#000000;stroke-linecap:round;stroke-linejoin:round;stroke-width:0.75}
		.st6 {fill:none;stroke:none;stroke-linecap:round;stroke-linejoin:round;stroke-width:0.75}
		.st7 {fill:none;fill-rule:evenodd;font-size:12px;overflow:visible;stroke-linecap:square;stroke-miterlimit:3}
	]]>
	</style>

	<g v:mID="0" v:index="1" v:groupContext="foregroundPage">
		<title>Page-1</title>
		<v:pageProperties v:drawingScale="1" v:pageScale="1" v:drawingUnits="19" v:shadowOffsetX="9" v:shadowOffsetY="-9"/>
		<v:layer v:name="Connector" v:index="0"/>
		<g id="shape1-1" v:mID="1" v:groupContext="shape" transform="translate(8.75451,-40.6694)">
			<title>VeriRed 85: 189-58-64</title>
			<desc>Y</desc>
			<v:userDefs>
				<v:ud v:nameU="msvLayoutIncludeSubshapes" v:val="VT0(1):5"/>
				<v:ud v:nameU="visDGDisplayFormat" v:val="VT0(254):26"/>
			</v:userDefs>
			<v:textBlock v:margins="rect(0,0,0,0)"/>
			<v:textRect cx="3.6631" cy="82.7778" width="7.35" height="11.5127"/>
			<rect x="0" y="77.0215" width="7.32625" height="11.5127" class="st1"/>
			<text x="1" y="85.18" class="st2" v:langID="1033"><v:paragraph v:horizAlign="1"/><v:tabList/>Y</text>		</g>
		<g id="shape2-4" v:mID="2" v:groupContext="shape" transform="translate(17.389,-40.6694)">
			<title>VeriRed 85: 189-58-64.5</title>
			<desc>O</desc>
			<v:userDefs/>
			<v:textBlock v:margins="rect(0,0,0,0)"/>
			<v:textRect cx="3.6631" cy="82.7778" width="7.35" height="11.5127"/>
			<rect x="0" y="77.0215" width="7.32625" height="11.5127" class="st1"/>
			<text x="1.44" y="85.18" class="st2" v:langID="2057"><v:paragraph v:horizAlign="1"/><v:tabList/>o</text>		</g>
		<g id="shape3-7" v:mID="3" v:groupContext="shape" transform="translate(26.0235,-40.6694)">
			<title>VeriRed 85: 189-58-64.6</title>
			<desc>U</desc>
			<v:userDefs/>
			<v:textBlock v:margins="rect(0,0,0,0)"/>
			<v:textRect cx="3.6631" cy="82.7778" width="7.35" height="11.5127"/>
			<rect x="0" y="77.0215" width="7.32625" height="11.5127" class="st1"/>
			<text x="1.44" y="85.18" class="st2" v:langID="2057"><v:paragraph v:horizAlign="1"/><v:tabList/>u</text>		</g>
		<g id="shape4-10" v:mID="4" v:groupContext="shape" transform="translate(34.658,-40.6694)">
			<title>VeriRed 85: 189-58-64.7</title>
			<rect x="0" y="77.0215" width="7.32625" height="11.5127" class="st1"/>
		</g>
		<g id="shape5-12" v:mID="5" v:groupContext="shape" transform="translate(43.2925,-40.6694)">
			<title>VeriRed 85: 189-58-64.8</title>
			<desc>S</desc>
			<v:userDefs/>
			<v:textBlock v:margins="rect(0,0,0,0)"/>
			<v:textRect cx="3.6631" cy="82.7778" width="7.35" height="11.5127"/>
			<rect x="0" y="77.0215" width="7.32625" height="11.5127" class="st1"/>
			<text x="1.66" y="85.18" class="st2" v:langID="2057"><v:paragraph v:horizAlign="1"/><v:tabList/>s</text>		</g>
		<g id="shape6-15" v:mID="6" v:groupContext="shape" transform="translate(51.7962,-40.6694)">
			<title>VeriRed 85: 189-58-64.9</title>
			<desc>A</desc>
			<v:userDefs/>
			<v:textBlock v:margins="rect(0,0,0,0)"/>
			<v:textRect cx="3.6631" cy="82.7778" width="7.35" height="11.5127"/>
			<rect x="0" y="77.0215" width="7.32625" height="11.5127" class="st1"/>
			<text x="1.44" y="85.18" class="st2" v:langID="2057"><v:paragraph v:horizAlign="1"/><v:tabList/>a</text>		</g>
		<g id="shape7-18" v:mID="7" v:groupContext="shape" transform="translate(60.4307,-40.6694)">
			<title>VeriRed 85: 189-58-64.10</title>
			<desc>Y</desc>
			<v:userDefs/>
			<v:textBlock v:margins="rect(0,0,0,0)"/>
			<v:textRect cx="3.6631" cy="82.7778" width="7.35" height="11.5127"/>
			<rect x="0" y="77.0215" width="7.32625" height="11.5127" class="st1"/>
			<text x="1.66" y="85.18" class="st2" v:langID="2057"><v:paragraph v:horizAlign="1"/><v:tabList/>y</text>		</g>
		<g id="shape8-21" v:mID="8" v:groupContext="shape" transform="translate(69.0649,-40.6694)">
			<title>VeriRed 85: 189-58-64.11</title>
			<rect x="0" y="77.0215" width="7.32625" height="11.5127" class="st1"/>
		</g>
		<g id="shape9-23" v:mID="9" v:groupContext="shape" transform="translate(77.6994,-40.6694)">
			<title>VeriRed 85: 189-58-64.12</title>
			<desc>G</desc>
			<v:userDefs/>
			<v:textBlock v:margins="rect(0,0,0,0)"/>
			<v:textRect cx="3.6631" cy="82.7778" width="7.35" height="11.5127"/>
			<rect x="0" y="77.0215" width="7.32625" height="11.5127" class="st1"/>
			<text x="0.55" y="85.18" class="st2" v:langID="1033"><v:paragraph v:horizAlign="1"/><v:tabList/>G</text>		</g>
		<g id="shape10-26" v:mID="10" v:groupContext="shape" transform="translate(86.334,-40.6694)">
			<title>VeriRed 85: 189-58-64.13</title>
			<desc>O</desc>
			<v:userDefs/>
			<v:textBlock v:margins="rect(0,0,0,0)"/>
			<v:textRect cx="3.6631" cy="82.7778" width="7.35" height="11.5127"/>
			<rect x="0" y="77.0215" width="7.32625" height="11.5127" class="st1"/>
			<text x="1.44" y="85.18" class="st2" v:langID="2057"><v:paragraph v:horizAlign="1"/><v:tabList/>o</text>		</g>
		<g id="shape11-29" v:mID="11" v:groupContext="shape" transform="translate(95.1002,-40.6694)">
			<title>VeriRed 85: 189-58-64.14</title>
			<desc>O</desc>
			<v:userDefs/>
			<v:textBlock v:margins="rect(0,0,0,0)"/>
			<v:textRect cx="3.6631" cy="82.7778" width="7.35" height="11.5127"/>
			<rect x="0" y="77.0215" width="7.32625" height="11.5127" class="st1"/>
			<text x="1.44" y="85.18" class="st2" v:langID="2057"><v:paragraph v:horizAlign="1"/><v:tabList/>o</text>		</g>
		<g id="shape12-32" v:mID="12" v:groupContext="shape" transform="translate(103.735,-40.6694)">
			<title>VeriRed 85: 189-58-64.15</title>
			<desc>D</desc>
			<v:userDefs/>
			<v:textBlock v:margins="rect(0,0,0,0)"/>
			<v:textRect cx="3.6631" cy="82.7778" width="7.35" height="11.5127"/>
			<rect x="0" y="77.0215" width="7.32625" height="11.5127" class="st1"/>
			<text x="1.44" y="85.18" class="st2" v:langID="2057"><v:paragraph v:horizAlign="1"/><v:tabList/>d</text>		</g>
		<g id="shape13-35" v:mID="13" v:groupContext="shape" transform="translate(112.368,-40.6694)">
			<title>VeriRed 85: 189-58-64.16</title>
			<desc>B</desc>
			<v:userDefs/>
			<v:textBlock v:margins="rect(0,0,0,0)"/>
			<v:textRect cx="3.6631" cy="82.7778" width="7.35" height="11.5127"/>
			<rect x="0" y="77.0215" width="7.32625" height="11.5127" class="st1"/>
			<text x="1.44" y="85.18" class="st2" v:langID="2057"><v:paragraph v:horizAlign="1"/><v:tabList/>b</text>		</g>
		<g id="shape14-38" v:mID="14" v:groupContext="shape" transform="translate(121.004,-40.6694)">
			<title>VeriRed 85: 189-58-64.17</title>
			<desc>Y</desc>
			<v:userDefs/>
			<v:textBlock v:margins="rect(0,0,0,0)"/>
			<v:textRect cx="3.6631" cy="82.7778" width="7.35" height="11.5127"/>
			<rect x="0" y="77.0215" width="7.32625" height="11.5127" class="st1"/>
			<text x="1.66" y="85.18" class="st2" v:langID="2057"><v:paragraph v:horizAlign="1"/><v:tabList/>y</text>		</g>
		<g id="shape15-41" v:mID="15" v:groupContext="shape" transform="translate(129.638,-40.6694)">
			<title>VeriRed 85: 189-58-64.18</title>
			<desc>E</desc>
			<v:userDefs/>
			<v:textBlock v:margins="rect(0,0,0,0)"/>
			<v:textRect cx="3.6631" cy="82.7778" width="7.35" height="11.5127"/>
			<rect x="0" y="77.0215" width="7.32625" height="11.5127" class="st1"/>
			<text x="1.44" y="85.18" class="st2" v:langID="2057"><v:paragraph v:horizAlign="1"/><v:tabList/>e</text>		</g>
		<g id="shape16-44" v:mID="16" v:groupContext="shape" transform="translate(138.142,-40.6694)">
			<title>VeriRed 85: 189-58-64.19</title>
			<rect x="0" y="77.0215" width="7.32625" height="11.5127" class="st1"/>
		</g>
		<g id="shape17-46" v:mID="17" v:groupContext="shape" transform="translate(146.776,-40.6694)">
			<title>VeriRed 85: 189-58-64.20</title>
			<desc>A</desc>
			<v:userDefs/>
			<v:textBlock v:margins="rect(0,0,0,0)"/>
			<v:textRect cx="3.6631" cy="82.7778" width="7.35" height="11.5127"/>
			<rect x="0" y="77.0215" width="7.32625" height="11.5127" class="st1"/>
			<text x="1.44" y="85.18" class="st2" v:langID="2057"><v:paragraph v:horizAlign="1"/><v:tabList/>a</text>		</g>
		<g id="shape18-49" v:mID="18" v:groupContext="shape" transform="translate(155.411,-40.6694)">
			<title>VeriRed 85: 189-58-64.21</title>
			<desc>N</desc>
			<v:userDefs/>
			<v:textBlock v:margins="rect(0,0,0,0)"/>
			<v:textRect cx="3.6631" cy="82.7778" width="7.35" height="11.5127"/>
			<rect x="0" y="77.0215" width="7.32625" height="11.5127" class="st1"/>
			<text x="1.44" y="85.18" class="st2" v:langID="2057"><v:paragraph v:horizAlign="1"/><v:tabList/>n</text>		</g>
		<g id="shape19-52" v:mID="19" v:groupContext="shape" transform="translate(164.045,-40.6694)">
			<title>VeriRed 85: 189-58-64.22</title>
			<desc>D</desc>
			<v:userDefs/>
			<v:textBlock v:margins="rect(0,0,0,0)"/>
			<v:textRect cx="3.6631" cy="82.7778" width="7.35" height="11.5127"/>
			<rect x="0" y="77.0215" width="7.32625" height="11.5127" class="st1"/>
			<text x="1.44" y="85.18" class="st2" v:langID="2057"><v:paragraph v:horizAlign="1"/><v:tabList/>d</text>		</g>
		<g id="shape20-55" v:mID="20" v:groupContext="shape" transform="translate(172.68,-40.6694)">
			<title>VeriRed 85: 189-58-64.23</title>
			<rect x="0" y="77.0215" width="7.32625" height="11.5127" class="st1"/>
		</g>
		<g id="shape21-57" v:mID="21" v:groupContext="shape" transform="translate(181.314,-40.6694)">
			<title>VeriRed 85: 189-58-64.42</title>
			<desc>I</desc>
			<v:userDefs/>
			<v:textBlock v:margins="rect(0,0,0,0)"/>
			<v:textRect cx="3.6631" cy="82.7778" width="7.35" height="11.5127"/>
			<rect x="0" y="77.0215" width="7.32625" height="11.5127" class="st1"/>
			<text x="2.55" y="85.18" class="st2" v:langID="1033"><v:paragraph v:horizAlign="1"/><v:tabList/>I</text>		</g>
		<g id="shape22-60" v:mID="22" v:groupContext="shape" transform="translate(189.949,-40.6694)">
			<title>VeriRed 85: 189-58-64.43</title>
			<rect x="0" y="77.0215" width="7.32625" height="11.5127" class="st1"/>
		</g>
		<g id="shape23-62" v:mID="23" v:groupContext="shape" transform="translate(198.714,-40.6694)">
			<title>VeriRed 85: 189-58-64.44</title>
			<desc>S</desc>
			<v:userDefs/>
			<v:textBlock v:margins="rect(0,0,0,0)"/>
			<v:textRect cx="3.6631" cy="82.7778" width="7.35" height="11.5127"/>
			<rect x="0" y="77.0215" width="7.32625" height="11.5127" class="st1"/>
			<text x="1.66" y="85.18" class="st2" v:langID="2057"><v:paragraph v:horizAlign="1"/><v:tabList/>s</text>		</g>
		<g id="shape24-65" v:mID="24" v:groupContext="shape" transform="translate(207.348,-40.6694)">
			<title>VeriRed 85: 189-58-64.45</title>
			<desc>A</desc>
			<v:userDefs/>
			<v:textBlock v:margins="rect(0,0,0,0)"/>
			<v:textRect cx="3.6631" cy="82.7778" width="7.35" height="11.5127"/>
			<rect x="0" y="77.0215" width="7.32625" height="11.5127" class="st1"/>
			<text x="1.44" y="85.18" class="st2" v:langID="2057"><v:paragraph v:horizAlign="1"/><v:tabList/>a</text>		</g>
		<g id="shape25-68" v:mID="25" v:groupContext="shape" transform="translate(215.983,-40.6694)">
			<title>VeriRed 85: 189-58-64.46</title>
			<desc>Y</desc>
			<v:userDefs/>
			<v:textBlock v:margins="rect(0,0,0,0)"/>
			<v:textRect cx="3.6631" cy="82.7778" width="7.35" height="11.5127"/>
			<rect x="0" y="77.0215" width="7.32625" height="11.5127" class="st1"/>
			<text x="1.66" y="85.18" class="st2" v:langID="2057"><v:paragraph v:horizAlign="1"/><v:tabList/>y</text>		</g>
		<g id="shape26-71" v:mID="26" v:groupContext="shape" transform="translate(224.617,-40.6694)">
			<title>VeriRed 85: 189-58-64.47</title>
			<rect x="0" y="77.0215" width="7.32625" height="11.5127" class="st1"/>
		</g>
		<g id="shape27-73" v:mID="27" v:groupContext="shape" transform="translate(233.252,-40.6694)">
			<title>VeriRed 85: 189-58-64.48</title>
			<desc>H</desc>
			<v:userDefs/>
			<v:textBlock v:margins="rect(0,0,0,0)"/>
			<v:textRect cx="3.6631" cy="82.7778" width="7.35" height="11.5127"/>
			<rect x="0" y="77.0215" width="7.32625" height="11.5127" class="st1"/>
			<text x="0.77" y="85.18" class="st2" v:langID="1033"><v:paragraph v:horizAlign="1"/><v:tabList/>H</text>		</g>
		<g id="shape28-76" v:mID="28" v:groupContext="shape" transform="translate(241.756,-40.6694)">
			<title>VeriRed 85: 189-58-64.49</title>
			<desc>E</desc>
			<v:userDefs/>
			<v:textBlock v:margins="rect(0,0,0,0)"/>
			<v:textRect cx="3.6631" cy="82.7778" width="7.35" height="11.5127"/>
			<rect x="0" y="77.0215" width="7.32625" height="11.5127" class="st1"/>
			<text x="1.44" y="85.18" class="st2" v:langID="2057"><v:paragraph v:horizAlign="1"/><v:tabList/>e</text>		</g>
		<g id="shape29-79" v:mID="29" v:groupContext="shape" transform="translate(250.39,-40.6694)">
			<title>VeriRed 85: 189-58-64.50</title>
			<desc>L</desc>
			<v:userDefs/>
			<v:textBlock v:margins="rect(0,0,0,0)"/>
			<v:textRect cx="3.6631" cy="82.7778" width="7.35" height="11.5127"/>
			<rect x="0" y="77.0215" width="7.32625" height="11.5127" class="st1"/>
			<text x="2.77" y="85.18" class="st2" v:langID="2057"><v:paragraph v:horizAlign="1"/><v:tabList/>l</text>		</g>
		<g id="shape30-82" v:mID="30" v:groupContext="shape" transform="translate(259.025,-40.6694)">
			<title>VeriRed 85: 189-58-64.51</title>
			<desc>L</desc>
			<v:userDefs/>
			<v:textBlock v:margins="rect(0,0,0,0)"/>
			<v:textRect cx="3.6631" cy="82.7778" width="7.35" height="11.5127"/>
			<rect x="0" y="77.0215" width="7.32625" height="11.5127" class="st1"/>
			<text x="2.77" y="85.18" class="st2" v:langID="2057"><v:paragraph v:horizAlign="1"/><v:tabList/>l</text>		</g>
		<g id="shape31-85" v:mID="31" v:groupContext="shape" transform="translate(267.659,-40.6694)">
			<title>VeriRed 85: 189-58-64.52</title>
			<desc>O</desc>
			<v:userDefs/>
			<v:textBlock v:margins="rect(0,0,0,0)"/>
			<v:textRect cx="3.6631" cy="82.7778" width="7.35" height="11.5127"/>
			<rect x="0" y="77.0215" width="7.32625" height="11.5127" class="st1"/>
			<text x="1.44" y="85.18" class="st2" v:langID="2057"><v:paragraph v:horizAlign="1"/><v:tabList/>o</text>		</g>
		<g id="shape32-88" v:mID="32" v:groupContext="shape" transform="translate(0.12,-40.6694)">
			<title>VeriRed 85: 189-58-64.54</title>
			<desc>...</desc>
			<v:userDefs/>
			<v:textBlock v:margins="rect(0,0,0,0)"/>
			<v:textRect cx="3.6631" cy="82.7778" width="7.35" height="11.5127"/>
			<rect x="0" y="77.0215" width="7.32625" height="11.5127" class="st1"/>
			<text x="0.33" y="85.18" class="st2" v:langID="1033"><v:paragraph v:horizAlign="1"/><v:tabList/>...</text>		</g>
		<g id="shape33-91" v:mID="33" v:groupContext="shape" transform="translate(276.294,-40.6694)">
			<title>VeriRed 85: 189-58-64.56</title>
			<desc>...</desc>
			<v:userDefs/>
			<v:textBlock v:margins="rect(0,0,0,0)"/>
			<v:textRect cx="3.6631" cy="82.7778" width="7.35" height="11.5127"/>
			<rect x="0" y="77.0215" width="7.32625" height="11.5127" class="st1"/>
			<text x="0.33" y="85.18" class="st2" v:langID="1033"><v:paragraph v:horizAlign="1"/><v:tabList/>...</text>		</g>
		<g id="group34-94" transform="translate(77.6994,-55.0666)" v:mID="34" v:groupContext="group">
			<title>Sheet.34</title>
			<g id="shape35-95" v:mID="35" v:groupContext="shape">
				<title>Sheet.35</title>
				<path d="M0 88.53 L0 77.02 L169.94 77.02 L169.94 88.53 L0 88.53 Z" class="st3"/>
			</g>
			<g id="shape36-97" v:mID="36" v:groupContext="shape">
				<title>Sheet.36</title>
				<path d="M0 88.53 L0 77.02 L169.94 77.02 L169.94 88.53 L0 88.53 Z" class="st4"/>
				<path d="M0 88.53 L0 77.02 L169.94 77.02 L169.94 88.53" class="st5"/>
			</g>
		</g>
		<g id="group37-100" transform="translate(161.297,-66.5857)" v:mID="37" v:groupContext="group">
			<title>Dynamic connector</title>
			<g id="shape38-101" v:mID="38" v:groupContext="shape" v:layerMember="0">
				<title>Sheet.38</title>
				<path d="M0 88.53 L0 79.9 L0 88.53 Z" class="st3"/>
			</g>
			<g id="shape39-103" v:mID="39" v:groupContext="shape" v:layerMember="0">
				<title>Sheet.39</title>
				<path d="M0 88.53 L0 79.9 L0 88.53 Z" class="st4"/>
				<path d="M0 88.53 L0 79.9" class="st5"/>
			</g>
		</g>
		<g id="shape40-106" v:mID="40" v:groupContext="shape" transform="translate(89.262,-76.6465)">
			<title>Sheet.40</title>
			<desc>20-character sliding window</desc>
			<v:userDefs/>
			<v:textBlock v:margins="rect(4,4,4,4)"/>
			<v:textRect cx="73.4093" cy="82.7778" width="146.84" height="11.5127"/>
			<rect x="0" y="77.0215" width="146.819" height="11.5127" class="st6"/>
			<text x="24.05" y="85.18" class="st2" v:langID="1033"><v:paragraph v:horizAlign="1"/><v:tabList/>20-character sliding window</text>		</g>
		<g id="group41-109" transform="translate(77.6994,-23.394)" v:mID="41" v:groupContext="group">
			<title>Sheet.41</title>
			<g id="shape42-110" v:mID="42" v:groupContext="shape" transform="translate(0,165.556) scale(1,-1)">
				<title>Sheet.42</title>
				<path d="M0 88.53 L0 77.02 L195.84 77.02 L195.84 88.53 L0 88.53 Z" class="st3"/>
			</g>
			<g id="shape43-112" v:mID="43" v:groupContext="shape" transform="translate(0,165.556) scale(1,-1)">
				<title>Sheet.43</title>
				<path d="M0 88.53 L0 77.02 L195.84 77.02 L195.84 88.53 L0 88.53 Z" class="st4"/>
				<path d="M0 88.53 L0 77.02 L195.84 77.02 L195.84 88.53" class="st5"/>
			</g>
		</g>
		<g id="group44-115" transform="translate(178.566,-14.0482)" v:mID="44" v:groupContext="group">
			<title>Dynamic connector.64</title>
			<g id="shape45-116" v:mID="45" v:groupContext="shape" v:layerMember="0">
				<title>Sheet.45</title>
				<path d="M0 79.17 L0 88.53 L0 79.17 Z" class="st3"/>
			</g>
			<g id="shape46-118" v:mID="46" v:groupContext="shape" v:layerMember="0">
				<title>Sheet.46</title>
				<path d="M0 79.17 L0 88.53 L0 79.17 Z" class="st4"/>
				<path d="M0 79.17 L0 88.53" class="st5"/>
			</g>
		</g>
		<g id="shape47-121" v:mID="47" v:groupContext="shape" transform="translate(138.615,-0.375)">
			<title>Sheet.47</title>
			<desc>23 characters</desc>
			<v:userDefs/>
			<v:textBlock v:margins="rect(4,4,4,4)"/>
			<v:textRect cx="39.9505" cy="82.7778" width="79.92" height="11.5127"/>
			<rect x="0" y="77.0215" width="79.9012" height="11.5127" class="st6"/>
			<text x="15.72" y="85.18" class="st2" v:langID="1033"><v:paragraph v:horizAlign="1"/><v:tabList/>23 characters</text>		</g>
	</g>
</svg>
